<svg xmlns="http://www.w3.org/2000/svg" xmlns:xlink="http://www.w3.org/1999/xlink" version="1.1" width="212.015" height="212.015" style="enable-background:new 0 0 212.015 212.015;" xml:space="preserve"><rect id="backgroundrect" width="100%" height="100%" x="0" y="0" fill="none" stroke="none"/>
















<g class="currentLayer" style=""><title>Layer 1</title><g id="svg_1" class="selected" fill="#d5d50b" fill-opacity="1">
	<g id="svg_2" fill="#d5d50b" fill-opacity="1">
		<rect x="33.06100082397461" y="82.09200286865234" width="145.88600158691406" height="15.958000183105469" id="svg_3" fill="#d5d50b" fill-opacity="1"/>
		<path d="M160.718,184.668h-4.54l13.648-81.693H42.184l13.657,81.693h-4.546c-10.015,0-18.234,8.203-18.234,18.222v9.125h27.351    h91.177h27.343v-9.125C178.947,192.855,170.729,184.668,160.718,184.668z M147.024,141.797c-2.084,0-9.614-0.741-17.617-1.932    l-0.765,4.648c-0.83,4.938-5.615,8.984-10.628,8.984H94.012c-5.033,0-9.796-4.047-10.629-8.984l-5.416-32.552h56.118    l-2.208,13.232c7.037-0.958,13.28-1.527,15.173-1.527c5.005-0.016,9.053,4.056,9.053,9.077    C156.089,137.713,152.018,141.797,147.024,141.797z" id="svg_4" fill="#d5d50b" fill-opacity="1"/>
		<path d="M178.947,13.708h-18.229V6.091h18.229V2.442c0-1.353-6.576-2.442-14.595-2.442H47.668c-8.029,0-14.607,1.09-14.607,2.442    v3.649h18.234v7.616H33.061c-10.008,0-18.22,8.211-18.22,18.236v27.349c0,10.028,8.211,18.231,18.22,18.231h145.886    c10.022,0,18.226-8.203,18.226-18.231V31.943C197.173,21.918,188.97,13.708,178.947,13.708z M55.106,6.083h101.825v7.618H55.106    V6.083z M56.731,55.966c-5.714,0-10.357-4.639-10.357-10.354c0-5.725,4.657-10.357,10.357-10.357    c5.723,0,10.345,4.632,10.345,10.357C67.076,51.335,62.445,55.966,56.731,55.966z M106.022,66.311    c-11.432,0-20.719-9.275-20.719-20.699c0-11.439,9.287-20.704,20.719-20.704c11.443,0,20.704,9.273,20.704,20.704    C126.727,57.042,117.466,66.311,106.022,66.311z M155.283,55.966c-5.698,0-10.327-4.639-10.327-10.354    c0-5.725,4.645-10.357,10.327-10.357c5.743,0,10.363,4.632,10.363,10.357C165.671,51.335,161.038,55.966,155.283,55.966z" id="svg_5" fill="#d5d50b" fill-opacity="1"/>
		<path d="M106.006,132.72c0,2.914,12.225,5.475,23.394,7.13l2.444-14.672C120.086,126.817,106.006,129.57,106.006,132.72z" id="svg_6" fill="#d5d50b" fill-opacity="1"/>
	</g>
</g><g id="svg_7">
</g><g id="svg_8">
</g><g id="svg_9">
</g><g id="svg_10">
</g><g id="svg_11">
</g><g id="svg_12">
</g><g id="svg_13">
</g><g id="svg_14">
</g><g id="svg_15">
</g><g id="svg_16">
</g><g id="svg_17">
</g><g id="svg_18">
</g><g id="svg_19">
</g><g id="svg_20">
</g><g id="svg_21">
</g></g></svg>