<svg xmlns="http://www.w3.org/2000/svg" xmlns:xlink="http://www.w3.org/1999/xlink" version="1.1" style="" xml:space="preserve" width="213.195" height="213.195"><rect id="backgroundrect" width="100%" height="100%" x="0" y="0" fill="none" stroke="none"/>
















<g class="currentLayer" style=""><title>Layer 1</title><path d="M210.856,202.8148181872368 l-25.689,-79.277 c-1.002,-3.093 -3.8840000000000003,-5.188 -7.135,-5.188 h-18.135 c8.12,-14.714 13.953,-32.089 13.953,-51.658 C173.85,29.604818187236784 143.68,-0.5681818127632141 106.596,-0.5681818127632141 c-37.081,0 -67.25,30.173 -67.25,67.26 c0,19.569 5.833,36.944 13.952,51.658 H35.164 c-3.252,0 -6.132,2.095 -7.135,5.188 L2.34,202.8148181872368 c-0.7400000000000001,2.283 -0.3420000000000001,4.782 1.069,6.723 c1.411,1.941 3.6660000000000004,3.089 6.066,3.089 h194.246 c2.4,0 4.654,-1.1480000000000001 6.066,-3.089 C211.198,207.59681818723678 211.595,205.09781818723678 210.856,202.8148181872368 zM106.596,14.431818187236786 c28.813,0 52.254,23.444 52.254,52.26 c0,46.04 -39.284,79.696 -52.262,89.557 C93.6,146.4148181872368 54.346000000000004,112.86481818723679 54.346000000000004,66.69181818723679 C54.346000000000004,37.87581818723679 77.785,14.431818187236786 106.596,14.431818187236786 zM19.789,197.62681818723678 l20.829,-64.277 h22.295 c17.32,23.623 38.092,37.444 39.58,38.417 c1.247,0.8150000000000001 2.6750000000000003,1.222 4.104,1.222 c1.429,0 2.857,-0.40700000000000003 4.104,-1.222 c1.486,-0.972 22.261,-14.794 39.582,-38.417 h22.297 l20.828,64.277 H19.789 z" id="svg_1" class="selected" fill="#d5d50b" fill-opacity="1"/><g id="svg_2">
</g><g id="svg_3">
</g><g id="svg_4">
</g><g id="svg_5">
</g><g id="svg_6">
</g><g id="svg_7">
</g><g id="svg_8">
</g><g id="svg_9">
</g><g id="svg_10">
</g><g id="svg_11">
</g><g id="svg_12">
</g><g id="svg_13">
</g><g id="svg_14">
</g><g id="svg_15">
</g><g id="svg_16">
</g></g></svg>